<?xml version="1.0" encoding="utf-8"?>
<!-- Generator: Adobe Illustrator 26.0.1, SVG Export Plug-In . SVG Version: 6.00 Build 0)  -->
<svg version="1.1" id="Layer_1" xmlns="http://www.w3.org/2000/svg" xmlns:xlink="http://www.w3.org/1999/xlink" x="0px" y="0px"
	 viewBox="0 0 24 24" style="enable-background:new 0 0 24 24;" xml:space="preserve">
<style type="text/css">
	.st0{fill:#DBCED1;}
</style>
<g id="grid_system">
</g>
<g id="_icons">
	<path class="st0" d="M7,21h10c2.2,0,4-1.8,4-4v-6.5c0-1.3-0.6-2.4-1.6-3.2l-5-3.8c-1.4-1-3.4-1-4.8,0.1l-5,3.7
		C3.6,8.1,3,9.2,3,10.5V17C3,19.2,4.8,21,7,21z M5,10.5c0-0.6,0.3-1.2,0.8-1.6l5-3.8c0.4-0.3,0.8-0.4,1.2-0.4s0.8,0.1,1.2,0.4l5,3.8
		c0.5,0.4,0.8,1,0.8,1.6V17c0,1.1-0.9,2-2,2H7c-1.1,0-2-0.9-2-2V10.5z"/>
</g>
</svg>
