<?xml version="1.0" encoding="utf-8"?>
<!-- Generator: Adobe Illustrator 26.0.1, SVG Export Plug-In . SVG Version: 6.00 Build 0)  -->
<svg version="1.1" id="Capa_1" xmlns="http://www.w3.org/2000/svg" xmlns:xlink="http://www.w3.org/1999/xlink" x="0px" y="0px"
	 viewBox="0 0 299.3 299.3" style="enable-background:new 0 0 299.3 299.3;" xml:space="preserve">
<g>
	<path d="M290.3,78h-18.1l-12.9-41.5c-2.7-8.8-10.8-14.8-20.1-14.8H59.6c-9.3,0-17.4,6-20.1,14.9L27.1,78H9c-5,0-9,4-9,9v135
		c0,5,4,9,9,9h22.6l-6.7,36c-0.5,2.6,0.2,5.3,1.9,7.4c1.7,2.1,4.2,3.2,6.9,3.2h231.8c2.7,0,5.2-1.2,6.9-3.2c1.7-2.1,2.4-4.8,1.9-7.4
		l-6.7-36h22.6c5,0,9-4,9-9V87C299.3,82.1,295.3,78,290.3,78z M56.8,41.9c0.4-1.3,1.5-2.1,2.9-2.1h179.6c1.3,0,2.5,0.8,2.9,2.1
		L253.4,78H45.9L56.8,41.9z M254.8,259.6H44.6L58,187.5h183.4L254.8,259.6z M281.3,213h-16.9l-6.7-36.2c-0.8-4.3-4.5-7.4-8.8-7.4
		H50.5c-4.3,0-8.1,3.1-8.8,7.4L34.9,213H18V96h15.8c0,0,0.1,0,0.1,0h231.6c0,0,0,0,0.1,0c0,0,0,0,0,0h15.7V213z"/>
	<path d="M261.7,111.6h-27.3c-5,0-9,4-9,9s4,9,9,9h27.3c5,0,9-4,9-9S266.7,111.6,261.7,111.6z"/>
	<path d="M215.5,227.8H83.8c-5,0-9,4-9,9s4,9,9,9h131.8c5,0,9-4,9-9S220.5,227.8,215.5,227.8z"/>
</g>
</svg>
