<?xml version="1.0" encoding="utf-8"?>
<!-- Generator: Adobe Illustrator 26.0.1, SVG Export Plug-In . SVG Version: 6.00 Build 0)  -->
<svg version="1.1" id="icon" xmlns="http://www.w3.org/2000/svg" xmlns:xlink="http://www.w3.org/1999/xlink" x="0px" y="0px"
	 viewBox="0 0 32 32" style="enable-background:new 0 0 32 32;" xml:space="preserve">
<style type="text/css">
	.st0{fill:#605C5C;}
	.st1{fill:none;}
</style>
<path class="st0" d="M16,8c-2.8,0-5,2.2-5,5s2.2,5,5,5s5-2.2,5-5S18.8,8,16,8z M16,16c-1.7,0-3-1.3-3-3s1.3-3,3-3s3,1.3,3,3
	C19,14.7,17.7,16,16,16z"/>
<path class="st0" d="M16,2C8.3,2,2,8.3,2,16s6.3,14,14,14s14-6.3,14-14C30,8.3,23.7,2,16,2z M10,26.4V25c0-1.7,1.3-3,3-3h6
	c1.7,0,3,1.3,3,3v1.4C18.3,28.5,13.7,28.5,10,26.4z M24,24.9c0-2.7-2.3-4.9-5-4.9h-6c-2.7,0-5,2.2-5,4.9C3.1,20.5,2.6,12.9,7,8
	S19,2.6,24,7s5.4,12,1,16.9C24.6,24.3,24.3,24.6,24,24.9z"/>
<rect id="_Transparent_Rectangle_" class="st1" width="32" height="32"/>
</svg>
